<?xml version="1.0" encoding="UTF-8" standalone="no"?>
<svg
   viewBox="0 0 600.99628 600.99628"
   height="600.99628"
   width="600.99628"
   xml:space="preserve"
   version="1.1"
   id="svg5120"
   sodipodi:docname="hgv.svg"
   inkscape:version="1.1.2 (0a00cf5339, 2022-02-04)"
   xmlns:inkscape="http://www.inkscape.org/namespaces/inkscape"
   xmlns:sodipodi="http://sodipodi.sourceforge.net/DTD/sodipodi-0.dtd"
   xmlns="http://www.w3.org/2000/svg"
   xmlns:svg="http://www.w3.org/2000/svg"
   xmlns:rdf="http://www.w3.org/1999/02/22-rdf-syntax-ns#"
   xmlns:cc="http://creativecommons.org/ns#"
   xmlns:dc="http://purl.org/dc/elements/1.1/"><sodipodi:namedview
     id="namedview35"
     pagecolor="#ffffff"
     bordercolor="#666666"
     borderopacity="1.0"
     inkscape:pageshadow="2"
     inkscape:pageopacity="0.0"
     inkscape:pagecheckerboard="0"
     showgrid="false"
     inkscape:zoom="0.68828624"
     inkscape:cx="138.75041"
     inkscape:cy="270.96285"
     inkscape:window-width="1327"
     inkscape:window-height="744"
     inkscape:window-x="39"
     inkscape:window-y="24"
     inkscape:window-maximized="1"
     inkscape:current-layer="g5130" /><metadata
     id="metadata5126"><rdf:RDF><cc:Work
         rdf:about=""><dc:format>image/svg+xml</dc:format><dc:type
           rdf:resource="http://purl.org/dc/dcmitype/StillImage" /><dc:title /></cc:Work></rdf:RDF></metadata><defs
     id="defs5124" /><g
     id="g5130"
     transform="matrix(1.25,0,0,-1.25,0,600.99628)"><path
       id="path5138"
       style="fill:#000000;fill-opacity:1;fill-rule:nonzero;stroke:none"
       d="m 23.832,456.512 v -0.024 h -0.023 z" /><path
       id="path5140"
       style="fill:#000000;fill-opacity:1;fill-rule:nonzero;stroke:none"
       d="m 23.809,456.512 h 0.023 v -0.023 h -0.023 z" /><path
       id="path5142"
       style="fill:#000000;fill-opacity:1;fill-rule:nonzero;stroke:none"
       d="m 23.809,456.488 v 0.024 l 0.023,-0.024 z m 0.023,0 -0.023,0.024 v -0.024 z" /><path
       id="path5144"
       style="fill:#000000;fill-opacity:1;fill-rule:nonzero;stroke:none"
       d="m 23.859,456.488 h -0.05 0.023 v 0.024 z" /><path
       id="path5146"
       style="fill:#000000;fill-opacity:1;fill-rule:nonzero;stroke:none"
       d="m 23.809,456.488 v 0.024 -0.024 l 0.023,0.024 z" /><path
       id="path5148"
       style="fill:#000000;fill-opacity:1;fill-rule:nonzero;stroke:none"
       d="m 23.809,456.512 h 0.023 v -0.023 h -0.023 z" /><path
       id="path5150"
       style="fill:#000000;fill-opacity:1;fill-rule:nonzero;stroke:none"
       d="m 23.859,456.512 v -0.047 h -0.05 z" /><path
       id="path5152"
       style="fill:#000000;fill-opacity:1;fill-rule:nonzero;stroke:none"
       d="m 23.809,456.512 h 0.051 v -0.047 h -0.051 z" /><path
       id="path5154"
       style="fill:#000000;fill-opacity:1;fill-rule:nonzero;stroke:none"
       d="m 23.809,456.465 v 0.047 l 0.05,-0.047 z m 0.05,0 -0.05,0.047 v -0.047 z" /><path
       id="path5156"
       style="fill:#000000;fill-opacity:1;fill-rule:nonzero;stroke:none"
       d="m 23.859,456.465 h -0.05 0.023 v 0.047 z" /><path
       id="path5158"
       style="fill:#000000;fill-opacity:1;fill-rule:nonzero;stroke:none"
       d="m 23.809,456.465 v 0.047 -0.047 l 0.05,0.047 z" /><path
       id="path5160"
       style="fill:#000000;fill-opacity:1;fill-rule:nonzero;stroke:none"
       d="m 23.809,456.512 h 0.051 v -0.047 h -0.051 z" /><path
       id="path5162"
       style="fill:#000000;fill-opacity:1;fill-rule:nonzero;stroke:none"
       d="m 23.859,456.512 v -0.047 h -0.05 z" /><path
       id="path5164"
       style="fill:#000000;fill-opacity:1;fill-rule:nonzero;stroke:none"
       d="m 23.809,456.512 h 0.051 v -0.047 h -0.051 z" /><path
       id="path5166"
       style="fill:#000000;fill-opacity:1;fill-rule:nonzero;stroke:none"
       d="m 23.809,456.465 v 0.047 l 0.05,-0.047 z m 0.05,0 -0.05,0.047 v -0.047 z" /><path
       id="path5168"
       style="fill:#000000;fill-opacity:1;fill-rule:nonzero;stroke:none"
       d="m 23.859,456.465 h -0.05 0.023 v 0.047 z" /><path
       id="path5170"
       style="fill:#000000;fill-opacity:1;fill-rule:nonzero;stroke:none"
       d="m 23.809,456.465 v 0.047 -0.047 l 0.05,0.047 z" /><path
       id="path5172"
       style="fill:#000000;fill-opacity:1;fill-rule:nonzero;stroke:none"
       d="m 23.809,456.512 h 0.051 v -0.047 h -0.051 z" /><path
       id="path5174"
       style="fill:#000000;fill-opacity:1;fill-rule:nonzero;stroke:none"
       d="m 23.859,456.512 v -0.047 h -0.05 z" /><path
       id="path5176"
       style="fill:#000000;fill-opacity:1;fill-rule:nonzero;stroke:none"
       d="m 23.809,456.512 h 0.051 v -0.047 h -0.051 z" /><path
       id="path5178"
       style="fill:#000000;fill-opacity:1;fill-rule:nonzero;stroke:none"
       d="m 23.809,456.465 v 0.047 l 0.05,-0.047 z m 0.05,0 -0.05,0.047 v -0.047 z" /><path
       id="path5180"
       style="fill:#000000;fill-opacity:1;fill-rule:nonzero;stroke:none"
       d="m 23.859,456.465 h -0.05 0.023 v 0.047 z" /><path
       id="path5182"
       style="fill:#000000;fill-opacity:1;fill-rule:nonzero;stroke:none"
       d="m 23.809,456.465 v 0.047 -0.047 l 0.05,0.047 z" /><path
       id="path5184"
       style="fill:#000000;fill-opacity:1;fill-rule:nonzero;stroke:none"
       d="m 23.809,456.512 h 0.051 v -0.047 h -0.051 z" /><path
       id="path5186"
       style="fill:#000000;fill-opacity:1;fill-rule:nonzero;stroke:none;stroke-width:1.6163"
       d="M 161.5763,346.62259 V 203.24582 h 297.00084 v 143.37677 z m -20.46878,-35.82358 -88.763737,-5.5439 c -4.014879,-0.25214 -7.525474,-2.85923 -8.933268,-6.63489 L 20.800151,238.3744 c -1.722972,-4.60159 -2.568295,-9.48281 -2.568295,-14.3818 v -56.57036 c 0,-5.6635 4.557955,-10.25378 10.214991,-10.25378 h 5.139821 c 0,25.45666 20.625553,46.07736 46.082214,46.07736 25.456658,0 46.077368,-20.6207 46.077368,-46.07736 h 184.34663 c 0,13.92116 6.29386,27.10528 17.10365,35.86237 H 141.10752 Z m -35.86075,-17.9619 v -51.19133 l -67.986261,-7.98127 c -0.195572,-0.0178 -0.384679,-0.063 -0.58025,-0.063 -2.841449,0 -5.139822,2.29837 -5.139822,5.13982 0,0.60611 0.126071,1.23808 0.334574,1.8054 l 17.166679,45.76865 c 0.701472,1.89915 2.450305,3.16795 4.464209,3.30695 z M 79.668882,193.03083 c -19.799625,0 -35.860758,-16.06275 -35.860758,-35.86237 0,-19.79316 16.061133,-35.83005 35.860758,-35.83005 19.79316,0 35.823588,16.03689 35.823588,35.83005 0,19.79962 -16.030428,35.86237 -35.823588,35.86237 z m 276.469038,0 c -19.79316,0 -35.83005,-16.06275 -35.83005,-35.86237 0,-19.79316 16.03689,-35.83005 35.83005,-35.83005 19.79963,0 35.86238,16.03689 35.86238,35.83005 0,19.79962 -16.06275,35.86237 -35.86238,35.86237 z m 29.00443,0 c 10.80979,-8.75709 17.10365,-21.94121 17.10365,-35.86237 h 25.61506 l 30.71608,10.25378 v 25.60859 z" /></g></svg>
