<?xml version="1.0" encoding="UTF-8" standalone="no"?>
<svg
   width="725"
   height="725"
   version="1.1"
   id="svg2"
   sodipodi:version="0.32"
   inkscape:version="1.1.2 (0a00cf5339, 2022-02-04)"
   sodipodi:docname="tractor.svg"
   inkscape:output_extension="org.inkscape.output.svg.inkscape"
   inkscape:export-filename="bicycle.png"
   inkscape:export-xdpi="2"
   inkscape:export-ydpi="2"
   xmlns:inkscape="http://www.inkscape.org/namespaces/inkscape"
   xmlns:sodipodi="http://sodipodi.sourceforge.net/DTD/sodipodi-0.dtd"
   xmlns="http://www.w3.org/2000/svg"
   xmlns:svg="http://www.w3.org/2000/svg"
   xmlns:rdf="http://www.w3.org/1999/02/22-rdf-syntax-ns#"
   xmlns:cc="http://creativecommons.org/ns#"
   xmlns:dc="http://purl.org/dc/elements/1.1/">
  <metadata
     id="metadata13">
    <rdf:RDF>
      <cc:Work
         rdf:about="">
        <dc:format>image/svg+xml</dc:format>
        <dc:type
           rdf:resource="http://purl.org/dc/dcmitype/StillImage" />
        <cc:license
           rdf:resource="http://creativecommons.org/licenses/publicdomain/" />
      </cc:Work>
      <cc:License
         rdf:about="http://creativecommons.org/licenses/publicdomain/">
        <cc:permits
           rdf:resource="http://creativecommons.org/ns#Reproduction" />
        <cc:permits
           rdf:resource="http://creativecommons.org/ns#Distribution" />
        <cc:permits
           rdf:resource="http://creativecommons.org/ns#DerivativeWorks" />
      </cc:License>
    </rdf:RDF>
  </metadata>
  <defs
     id="defs11">
    <inkscape:perspective
       sodipodi:type="inkscape:persp3d"
       inkscape:vp_x="0 : 362.5 : 1"
       inkscape:vp_y="0 : 1000 : 0"
       inkscape:vp_z="725 : 362.5 : 1"
       inkscape:persp3d-origin="362.5 : 241.66667 : 1"
       id="perspective15" />
  </defs>
  <sodipodi:namedview
     inkscape:window-height="716"
     inkscape:window-width="1227"
     inkscape:pageshadow="2"
     inkscape:pageopacity="0.0"
     guidetolerance="10.0"
     gridtolerance="10.0"
     objecttolerance="10.0"
     borderopacity="1.0"
     bordercolor="#666666"
     pagecolor="#ffffff"
     id="base"
     showgrid="false"
     inkscape:pagecheckerboard="0"
     inkscape:zoom="0.80689655"
     inkscape:cx="362.5"
     inkscape:cy="362.5"
     inkscape:window-x="139"
     inkscape:window-y="24"
     inkscape:window-maximized="0"
     inkscape:current-layer="svg2" />
  <circle
     style="fill: rgb(255, 255, 255); stroke: rgb(0, 0, 0); stroke-width: 2.5px;"
     r="350"
     cx="362.5"
     cy="362.5"
     id="OuterCircle" />
  <circle
     cx="362.5"
     cy="362.5"
     r="290"
     style="stroke: rgb(204, 0, 0); stroke-width: 93.75; fill: none;"
     id="RedCircle" />
  <g
     id="g4187"
     transform="matrix(-24.443747,0,0,24.436494,552.36108,-25198.984)">
    <path
       style="fill:none;stroke:#ffffff;stroke-width:1.53371;stroke-miterlimit:4;stroke-dasharray:none"
       d="m 7.8643285,1038.9709 h -4.685811 v 5.4508 c -1.4220966,0.4947 -2.481982,1.88 -2.481982,3.5589 0,2.0986 1.6839725,3.7693 3.6284723,3.7693 1.8429237,0 3.4382913,-1.4835 3.612425,-3.4323 1.6579709,0 1.3542269,0 2.4427552,0.011 -0.184078,0.3388 -0.280898,0.718 -0.281719,1.1036 4.05e-4,1.282 1.039543,2.3211 2.321509,2.3215 1.282663,6e-4 2.322888,-1.0387 2.323293,-2.3215 -1.39e-4,-0.3806 -0.09382,-0.7553 -0.272804,-1.0912 0.06088,4e-4 0.832676,0 0.832676,0 l -0.0019,-3.4787 -6.1443331,-0.6204 z"
       id="path4153"
       inkscape:connector-curvature="0" />
    <path
       inkscape:connector-curvature="0"
       id="path4141"
       d="m 7.8643285,1038.9709 h -4.685811 v 5.4508 c -1.4220966,0.4947 -2.481982,1.88 -2.481982,3.5589 0,2.0986 1.6839725,3.7693 3.6284723,3.7693 1.8429237,0 3.4382913,-1.4835 3.612425,-3.4323 1.6579709,0 1.3542269,0 2.4427552,0.011 -0.184078,0.3388 -0.280898,0.718 -0.281719,1.1036 4.05e-4,1.282 1.039543,2.3211 2.321509,2.3215 1.282663,6e-4 2.322888,-1.0387 2.323293,-2.3215 -1.39e-4,-0.3806 -0.09382,-0.7553 -0.272804,-1.0912 0.06088,4e-4 0.832676,0 0.832676,0 l -0.0019,-3.4787 -6.1443331,-0.6204 z"
       style="fill:#000000;stroke:none;stroke-width:1;stroke-miterlimit:4;stroke-dasharray:none" />
    <path
       inkscape:connector-curvature="0"
       id="path4139"
       d="m 4.1787991,1039.9017 h 2.9455706 l 0.9878004,4.3827 -3.933371,-0.028 z"
       style="fill:#ffffff" />
    <path
       inkscape:connector-curvature="0"
       id="path4137"
       d="m 4.3392722,1046.5044 c 0.9287187,0 1.4799173,0.7049 1.4799173,1.4994 0,0.7943 -0.5511986,1.4994 -1.4799173,1.4994 -0.928717,0 -1.4799176,-0.7051 -1.4799176,-1.4994 0,-0.7945 0.5512006,-1.4994 1.4799176,-1.4994 z"
       style="fill:#ffffff" />
    <path
       inkscape:connector-curvature="0"
       id="path4140"
       d="m 12.378968,1048.3337 c 0.701936,8e-4 1.153715,0.5173 1.153623,1.0967 -9.2e-5,0.5792 -0.49896,1.1112 -1.112613,1.1108 -0.613651,-7e-4 -1.11633,-0.5293 -1.110829,-1.1108 0.0055,-0.5818 0.367884,-1.0974 1.069819,-1.0967 z"
       style="fill:#ffffff" />
  </g>
</svg>
