<?xml version="1.0" encoding="UTF-8" standalone="no"?>
<!-- Created with Inkscape (http://www.inkscape.org/) -->

<svg
   width="21.996511mm"
   height="20.125322mm"
   viewBox="0 0 21.996511 20.125322"
   version="1.1"
   id="svg921"
   inkscape:version="1.1.2 (0a00cf5339, 2022-02-04)"
   xmlns:inkscape="http://www.inkscape.org/namespaces/inkscape"
   xmlns:sodipodi="http://sodipodi.sourceforge.net/DTD/sodipodi-0.dtd"
   xmlns:xlink="http://www.w3.org/1999/xlink"
   xmlns="http://www.w3.org/2000/svg"
   xmlns:svg="http://www.w3.org/2000/svg">
  <sodipodi:namedview
     id="namedview923"
     pagecolor="#ffffff"
     bordercolor="#666666"
     borderopacity="1.0"
     inkscape:pageshadow="2"
     inkscape:pageopacity="0.0"
     inkscape:pagecheckerboard="0"
     inkscape:document-units="mm"
     showgrid="false"
     inkscape:zoom="2.084596"
     inkscape:cx="67.159297"
     inkscape:cy="48.210781"
     inkscape:window-width="1327"
     inkscape:window-height="744"
     inkscape:window-x="39"
     inkscape:window-y="24"
     inkscape:window-maximized="1"
     inkscape:current-layer="layer1" />
  <defs
     id="defs918">
    <radialGradient
       inkscape:collect="always"
       xlink:href="#linearGradient8662"
       id="radialGradient2782"
       gradientUnits="userSpaceOnUse"
       gradientTransform="matrix(1,0,0,0.536723,0,16.87306)"
       cx="24.837126"
       cy="36.421127"
       fx="24.837126"
       fy="36.421127"
       r="15.644737" />
    <linearGradient
       inkscape:collect="always"
       id="linearGradient8662">
      <stop
         style="stop-color:#000000;stop-opacity:1;"
         offset="0"
         id="stop8664" />
      <stop
         style="stop-color:#000000;stop-opacity:0;"
         offset="1"
         id="stop8666" />
    </linearGradient>
    <linearGradient
       inkscape:collect="always"
       xlink:href="#linearGradient2790"
       id="linearGradient2784"
       gradientUnits="userSpaceOnUse"
       x1="25.445534"
       y1="20.6875"
       x2="25.445534"
       y2="16.375" />
    <linearGradient
       id="linearGradient2790">
      <stop
         id="stop2792"
         offset="0"
         style="stop-color:#edd400;stop-opacity:1" />
      <stop
         id="stop2794"
         offset="1"
         style="stop-color:#fce94f;stop-opacity:1" />
    </linearGradient>
    <linearGradient
       inkscape:collect="always"
       xlink:href="#linearGradient5132"
       id="linearGradient2786"
       gradientUnits="userSpaceOnUse"
       x1="21.67729"
       y1="29.705048"
       x2="18.072493"
       y2="55.692348" />
    <linearGradient
       inkscape:collect="always"
       id="linearGradient5132">
      <stop
         style="stop-color:white;stop-opacity:1;"
         offset="0"
         id="stop5134" />
      <stop
         style="stop-color:white;stop-opacity:0;"
         offset="1"
         id="stop5136" />
    </linearGradient>
    <linearGradient
       inkscape:collect="always"
       xlink:href="#linearGradient5132"
       id="linearGradient2788"
       gradientUnits="userSpaceOnUse"
       gradientTransform="matrix(-1.430635,0,0,1.430157,50.64595,2.354766)"
       x1="15.456784"
       y1="8.734375"
       x2="25.561066"
       y2="13.526372" />
    <linearGradient
       inkscape:collect="always"
       xlink:href="#linearGradient5132"
       id="linearGradient5138"
       x1="21.55229"
       y1="29.205048"
       x2="18.072493"
       y2="55.692348"
       gradientUnits="userSpaceOnUse"
       gradientTransform="translate(41,37.464434)" />
    <radialGradient
       inkscape:collect="always"
       xlink:href="#linearGradient8662"
       id="radialGradient8668"
       cx="24.837126"
       cy="36.421127"
       fx="24.837126"
       fy="36.421127"
       r="15.644737"
       gradientTransform="matrix(1.47967,0,0,0.46821192,27.44855,-95.31197)"
       gradientUnits="userSpaceOnUse" />
    <linearGradient
       inkscape:collect="always"
       xlink:href="#linearGradient1913"
       id="linearGradient1919"
       x1="13.1875"
       y1="35.9375"
       x2="17.9375"
       y2="38.875"
       gradientUnits="userSpaceOnUse"
       gradientTransform="translate(41,37.464434)" />
    <linearGradient
       id="linearGradient1913">
      <stop
         style="stop-color:#73d216;stop-opacity:1"
         offset="0"
         id="stop1915" />
      <stop
         style="stop-color:#8ae234;stop-opacity:1"
         offset="1"
         id="stop1917" />
    </linearGradient>
    <linearGradient
       inkscape:collect="always"
       xlink:href="#linearGradient5132"
       id="linearGradient5897"
       x1="15.456784"
       y1="8.734375"
       x2="25.561066"
       y2="13.526372"
       gradientUnits="userSpaceOnUse"
       gradientTransform="matrix(-1.4306351,0,0,1.4301566,91.645952,39.819199)" />
  </defs>
  <g
     inkscape:label="Ebene 1"
     inkscape:groupmode="layer"
     id="layer1"
     transform="translate(-111.86328,-145.29119)">
    <g
       id="g1333"
       transform="matrix(0.26458333,0,0,0.26458333,111.96574,144.39197)">
      <g
         id="g2776"
         transform="matrix(-1,0,0,1,45.9611,0)">
        <ellipse
           style="color:#000000;display:inline;overflow:visible;visibility:visible;opacity:0.13;fill:url(#radialGradient2782);fill-opacity:1;fill-rule:evenodd;stroke:none;stroke-width:1;stroke-linecap:butt;stroke-linejoin:miter;stroke-miterlimit:10;stroke-dasharray:none;stroke-dashoffset:0;stroke-opacity:1;marker:none;marker-start:none;marker-mid:none;marker-end:none"
           id="path8660"
           transform="matrix(1.47967,0,0,-0.872353,-13.55145,72.5668)"
           cx="24.837126"
           cy="36.421127"
           rx="15.644737"
           ry="8.3968935" />
        <path
           sodipodi:nodetypes="ccccccss"
           id="path1432"
           d="M 17.424821,41.893434 C 0.283744,32.442251 9.935604,12.409146 26.422371,12.56649 V 4.4999994 L 42.5,18.558177 26.422371,33.301549 c 0,0 0,-8.729032 0,-8.729032 -10.234617,-0.415164 -14.741673,7.26702 -5.772326,13.363448 2.567094,1.744847 0.788778,6.170696 -3.225224,3.957469 z"
           style="color:#000000;display:block;overflow:visible;visibility:visible;opacity:1;fill:url(#linearGradient2784);fill-opacity:1;fill-rule:nonzero;stroke:#c4a000;stroke-width:0.999999;stroke-linecap:butt;stroke-linejoin:miter;stroke-miterlimit:4;stroke-dasharray:none;stroke-dashoffset:0;stroke-opacity:1;marker:none;marker-start:none;marker-mid:none;marker-end:none" />
        <path
           id="path4247"
           d="m 27.4375,6.6875 v 5.875 c -0.0084,0.548754 -0.451246,0.991567 -1,1 C 18.60766,13.487775 12.455124,18.243926 10.28125,24 8.1073762,29.756074 9.7034903,36.491213 17.9375,41.03125 c 0.850178,0.468768 1.465824,0.515729 1.875,0.4375 0.409176,-0.07823 0.667607,-0.297065 0.84375,-0.59375 0.352286,-0.593371 0.30018,-1.507389 -0.5625,-2.09375 -2.357244,-1.602209 -3.908933,-3.351016 -4.6875,-5.15625 -0.778567,-1.805234 -0.739824,-3.672336 0.03125,-5.25 1.542149,-3.155327 5.65403,-5.030625 11.03125,-4.8125 0.536516,0.02478 0.961006,0.462968 0.96875,1 0,0 0,3.934101 0,6.4375 L 41,18.5625 Z"
           style="color:#000000;display:block;overflow:visible;visibility:visible;opacity:0.617978;fill:none;fill-opacity:1;fill-rule:nonzero;stroke:url(#linearGradient2786);stroke-width:0.999999;stroke-linecap:butt;stroke-linejoin:miter;stroke-miterlimit:4;stroke-dashoffset:0;stroke-opacity:1;marker:none;marker-start:none;marker-mid:none;marker-end:none" />
        <path
           sodipodi:nodetypes="ccccc"
           id="path4920"
           d="M 41.660227,18.605336 C 23.110128,15.475328 12.765166,20.754837 8.865084,29.04107 8.711319,16.398198 21.828491,12.721185 26.954933,13.108518 l -0.01563,-7.5064859 z"
           style="opacity:0.45;fill:url(#linearGradient2788);fill-opacity:1;fill-rule:evenodd;stroke:none;stroke-width:1px;stroke-linecap:butt;stroke-linejoin:miter;stroke-opacity:1" />
      </g>
      <path
         style="color:#000000;display:block;overflow:visible;visibility:visible;opacity:0.617978;fill:none;fill-opacity:1;fill-rule:nonzero;stroke:url(#linearGradient5138);stroke-width:0.999999;stroke-linecap:butt;stroke-linejoin:miter;stroke-miterlimit:4;stroke-dashoffset:0;stroke-opacity:1;marker:none;marker-start:none;marker-mid:none;marker-end:none"
         d="m 68.4375,44.151934 v 5.874996 c -0.0084,0.54876 -0.451246,0.99157 -1,1 -7.82984,-0.0747 -13.982376,4.68143 -16.15625,10.4375 -2.173874,5.75608 -0.57776,12.49122 7.65625,17.03125 0.850178,0.46877 1.465824,0.51573 1.875,0.4375 0.409176,-0.0782 0.667607,-0.29706 0.84375,-0.59375 0.352286,-0.59337 0.30018,-1.50739 -0.5625,-2.09375 -2.357244,-1.60221 -3.908933,-3.35101 -4.6875,-5.15625 -0.778567,-1.80523 -0.739824,-3.67233 0.03125,-5.25 1.542149,-3.15532 5.65403,-5.03062 11.03125,-4.8125 0.536516,0.0248 0.961006,0.46297 0.96875,1 0,0 0,3.9341 0,6.4375 L 82,56.02693 Z"
         id="path4247-9" />
      <g
         id="g1125"
         transform="translate(-14.222727,-7.4330643)">
        <ellipse
           transform="scale(1,-1)"
           id="path8660-6"
           style="color:#000000;display:inline;overflow:visible;visibility:visible;opacity:0.13;fill:url(#radialGradient8668);fill-opacity:1;fill-rule:evenodd;stroke:none;stroke-width:1.13613;stroke-linecap:butt;stroke-linejoin:miter;stroke-miterlimit:10;stroke-dasharray:none;stroke-dashoffset:0;stroke-opacity:1;marker:none;marker-start:none;marker-mid:none;marker-end:none"
           cx="64.199303"
           cy="-78.259155"
           rx="23.149048"
           ry="7.3250551" />
        <g
           id="g1119">
          <path
             style="color:#000000;display:block;overflow:visible;visibility:visible;fill:url(#linearGradient1919);fill-opacity:1;fill-rule:nonzero;stroke:#4e9a06;stroke-width:0.999999;stroke-linecap:butt;stroke-linejoin:miter;stroke-miterlimit:4;stroke-dasharray:none;stroke-dashoffset:0;stroke-opacity:1;marker:none;marker-start:none;marker-mid:none;marker-end:none"
             d="M 58.424821,79.35787 C 41.283744,69.90668 50.935604,49.87358 67.422371,50.03092 V 41.964433 L 83.5,56.02261 67.422371,70.76598 c 0,0 0,-8.72903 0,-8.72903 -10.234617,-0.41516 -14.741673,7.26702 -5.772326,13.36345 2.567094,1.74485 0.788778,6.17069 -3.225224,3.95747 z"
             id="path1432-2"
             sodipodi:nodetypes="ccccccss" />
          <path
             style="opacity:0.45;fill:url(#linearGradient5897);fill-opacity:1;fill-rule:evenodd;stroke:none;stroke-width:1px;stroke-linecap:butt;stroke-linejoin:miter;stroke-opacity:1"
             d="M 82.660227,56.06977 C 64.110128,52.93976 53.765166,58.21927 49.865084,66.5055 49.711319,53.86263 62.828491,50.18562 67.954933,50.57295 l -0.01563,-7.506484 z"
             id="path4920-1"
             sodipodi:nodetypes="ccccc" />
        </g>
      </g>
    </g>
  </g>
</svg>
